<svg version="1.1" xmlns="http://www.w3.org/2000/svg" viewBox="0 0 771.1608752252171 645.4833073537891" width="771.1608752252171" height="645.4833073537891" filter="invert(93%) hue-rotate(180deg)">
  <!-- svg-source:excalidraw -->
  
  <defs>
    <style class="style-fonts">
      @font-face {
        font-family: "Virgil";
        src: url("https://excalidraw.com/Virgil.woff2");
      }
      @font-face {
        font-family: "Cascadia";
        src: url("https://excalidraw.com/Cascadia.woff2");
      }
      @font-face {
        font-family: "Assistant";
        src: url("https://excalidraw.com/Assistant-Regular.woff2");
      }
    </style>
    
  </defs>
  <g stroke-linecap="round" transform="translate(263.4448564507014 10) rotate(0 118.58832260182135 44.56514657980456)"><path d="M5.28 5.91 C5.28 5.91, 5.28 5.91, 5.28 5.91 M5.28 5.91 C5.28 5.91, 5.28 5.91, 5.28 5.91 M0.82 23.23 C4.73 19.76, 6.94 13.89, 20.5 0.59 M0.82 23.23 C7.49 15.38, 13.22 8.96, 20.5 0.59 M0.95 35.28 C8.02 27.34, 18.22 14.58, 31.78 -0.2 M0.95 35.28 C8.62 27.36, 14.94 18.19, 31.78 -0.2 M0.43 48.07 C16.66 29.58, 34.81 12.6, 42.41 -0.23 M0.43 48.07 C12.63 34.65, 25.3 19.29, 42.41 -0.23 M0.56 60.11 C15.65 41.09, 34.1 24.17, 53.04 -0.27 M0.56 60.11 C17.01 40.3, 35.3 20.13, 53.04 -0.27 M0.69 72.15 C22.85 44.24, 47.45 19.36, 63.67 -0.3 M0.69 72.15 C16.9 53.32, 34.21 35.3, 63.67 -0.3 M4.11 80.42 C18.49 61.28, 31.69 45.89, 74.3 -0.33 M4.11 80.42 C30.43 49.08, 56.19 18.41, 74.3 -0.33 M9.49 86.42 C23.55 68.27, 38.01 51.17, 84.28 0.39 M9.49 86.42 C27.32 66.64, 45.12 44.41, 84.28 0.39 M18.15 88.65 C40.22 60.27, 64.15 35.6, 94.91 0.35 M18.15 88.65 C42.08 60.98, 66.18 34.65, 94.91 0.35 M28.12 89.37 C46.73 69.55, 67.59 46.53, 105.54 0.32 M28.12 89.37 C53.48 59.65, 78.37 29.66, 105.54 0.32 M38.75 89.34 C65.52 55.21, 96.82 23.59, 116.17 0.28 M38.75 89.34 C56.06 68.57, 75.45 50.2, 116.17 0.28 M49.38 89.3 C67.71 65.52, 87.68 44.49, 126.8 0.25 M49.38 89.3 C68.16 68.77, 88.25 45.27, 126.8 0.25 M60.01 89.27 C87.81 56.88, 113.41 26.47, 137.43 0.21 M60.01 89.27 C80.76 65.13, 102.34 40.56, 137.43 0.21 M70.64 89.23 C97.19 57.62, 121.97 27.99, 148.06 0.18 M70.64 89.23 C100.23 54.74, 130.68 20.16, 148.06 0.18 M81.27 89.2 C101.09 65.92, 122.25 42.04, 158.69 0.14 M81.27 89.2 C108.64 58.63, 134.56 27.71, 158.69 0.14 M91.9 89.17 C109.74 69.25, 127.34 45.06, 169.32 0.11 M91.9 89.17 C120.86 56.93, 149.95 23.26, 169.32 0.11 M102.53 89.13 C128.29 57.19, 152.76 28.06, 179.95 0.08 M102.53 89.13 C118.2 72.15, 134.73 53.69, 179.95 0.08 M112.51 89.85 C144.88 56.47, 172.87 20.72, 190.58 0.04 M112.51 89.85 C136.43 62.19, 161.11 35.55, 190.58 0.04 M123.14 89.82 C138.75 69.76, 155.17 50.25, 201.21 0.01 M123.14 89.82 C148.31 61.15, 174.65 31.28, 201.21 0.01 M133.77 89.78 C154.55 67.63, 174.61 45.18, 211.84 -0.03 M133.77 89.78 C155.33 64.17, 179.22 36.88, 211.84 -0.03 M144.4 89.75 C170.29 59.54, 198.27 24.22, 221.16 1.45 M144.4 89.75 C167.13 64.92, 187.52 40.21, 221.16 1.45 M155.03 89.71 C171.4 69.47, 191.86 45.77, 229.16 4.43 M155.03 89.71 C181.61 57.87, 209.06 25.63, 229.16 4.43 M165.66 89.68 C185.85 66.4, 206.39 46.04, 233.89 11.19 M165.66 89.68 C190.94 59.99, 216.01 31.57, 233.89 11.19 M176.29 89.64 C200.75 63.62, 223.51 34.58, 237.3 19.46 M176.29 89.64 C197.07 66.5, 218.05 41.93, 237.3 19.46 M186.92 89.61 C203 74.84, 218.15 55.56, 237.44 31.5 M186.92 89.61 C202.9 69.79, 220.19 50.77, 237.44 31.5 M197.55 89.58 C213.94 70.95, 229.13 54.82, 237.57 43.54 M197.55 89.58 C210.53 76.01, 222.87 60.45, 237.57 43.54 M208.18 89.54 C216.6 77.24, 227.72 66.08, 237.7 55.58 M208.18 89.54 C216.28 80.31, 224.67 70.9, 237.7 55.58 M220.12 88 C223.81 84.92, 227.58 80.36, 237.18 68.37 M220.12 88 C224.38 84.22, 228.41 78.62, 237.18 68.37" stroke="#b2f2bb" stroke-width="1" fill="none"></path><path d="M22.28 0 C95.27 0.79, 171.52 0.33, 214.89 0 M22.28 0 C98.72 -2.26, 175.34 -1.55, 214.89 0 M214.89 0 C231.72 -0.54, 235.62 9.03, 237.18 22.28 M214.89 0 C230.52 -2.03, 239.15 8.16, 237.18 22.28 M237.18 22.28 C235.35 32.37, 237.15 47.28, 237.18 66.85 M237.18 22.28 C235.83 36.84, 236.89 51.9, 237.18 66.85 M237.18 66.85 C237.8 80.87, 229.18 88.64, 214.89 89.13 M237.18 66.85 C235.38 80.61, 231.44 88.42, 214.89 89.13 M214.89 89.13 C156.64 88.38, 94.12 86.49, 22.28 89.13 M214.89 89.13 C147.06 89.78, 79.57 88.96, 22.28 89.13 M22.28 89.13 C9.07 87.36, 0.63 80.46, 0 66.85 M22.28 89.13 C8.49 88.63, -0.48 82.99, 0 66.85 M0 66.85 C1.92 55.68, 0.82 44.31, 0 22.28 M0 66.85 C0.6 52.84, 0.81 40.5, 0 22.28 M0 22.28 C-1.46 6.55, 8.45 -1.29, 22.28 0 M0 22.28 C1.63 7.64, 5.6 1.7, 22.28 0" stroke="#1e1e1e" stroke-width="2" fill="none"></path></g><g transform="translate(301.74647619648965 33.850600149883775) rotate(0 87.17733001708984 16.80781758957655)"><text x="0" y="23.557837133550493" font-family="Virgil, Segoe UI Emoji" font-size="26.892508143322484px" fill="#1e1e1e" text-anchor="start" style="white-space: pre;" direction="ltr" dominant-baseline="alphabetic">App / Router</text></g><g stroke-linecap="round" transform="translate(310.3023013841172 291.8136360548234) rotate(0 107.5 32.56514657980455)"><path d="M4.33 3.77 C4.33 3.77, 4.33 3.77, 4.33 3.77 M4.33 3.77 C4.33 3.77, 4.33 3.77, 4.33 3.77 M0.53 20.34 C5.93 17.14, 10.87 10.88, 18.24 -0.04 M0.53 20.34 C5.05 15.41, 10.04 9.12, 18.24 -0.04 M0.66 32.38 C6.05 26.44, 11.45 19.06, 28.22 0.68 M0.66 32.38 C7.84 23, 15.86 15.48, 28.22 0.68 M0.8 44.42 C13.8 31.52, 25.53 16.33, 38.85 0.65 M0.8 44.42 C15.37 27.26, 29.22 10.7, 38.85 0.65 M1.59 55.7 C20.89 35.85, 38.61 14.22, 49.48 0.61 M1.59 55.7 C18.72 35.05, 35.83 16.07, 49.48 0.61 M6.31 62.46 C25.86 39.47, 41.24 21.1, 60.11 0.58 M6.31 62.46 C22.54 45.3, 38.09 25.52, 60.11 0.58 M14.97 64.69 C28.79 52.21, 37.66 36.45, 70.74 0.54 M14.97 64.69 C32.17 44.65, 49.79 24.12, 70.74 0.54 M25.6 64.66 C47.81 37.68, 69.8 11.85, 81.37 0.51 M25.6 64.66 C40.17 48.97, 52.86 34.23, 81.37 0.51 M36.23 64.62 C56.01 44.57, 73.46 19.17, 92 0.47 M36.23 64.62 C56.79 40.35, 77.71 17.05, 92 0.47 M46.86 64.59 C65.73 40.74, 86.17 18.13, 102.63 0.44 M46.86 64.59 C67.23 41.01, 87.35 16.79, 102.63 0.44 M57.49 64.55 C76.06 45.2, 91.86 25.15, 112.6 1.16 M57.49 64.55 C74.75 44.65, 90.56 26.65, 112.6 1.16 M67.47 65.27 C88.93 41.7, 107.07 19.62, 123.23 1.12 M67.47 65.27 C80.58 51.55, 93.29 36.42, 123.23 1.12 M78.1 65.24 C93.33 48.63, 105.36 35.13, 133.86 1.09 M78.1 65.24 C93.15 46.58, 109.85 29.94, 133.86 1.09 M88.73 65.21 C104.22 45.63, 121.69 27.86, 144.49 1.06 M88.73 65.21 C107.8 43.46, 126.13 19.98, 144.49 1.06 M99.36 65.17 C114.38 47.62, 127.9 33.29, 155.12 1.02 M99.36 65.17 C112.1 52.74, 123.96 38.48, 155.12 1.02 M109.99 65.14 C121.35 52.01, 135.36 37.34, 165.75 0.99 M109.99 65.14 C122.51 49.02, 135.32 34.31, 165.75 0.99 M120.62 65.1 C142.21 41.07, 163.04 16.83, 176.38 0.95 M120.62 65.1 C134.94 47.9, 149.84 30.27, 176.38 0.95 M131.25 65.07 C152.38 43.46, 173.7 19.07, 187.01 0.92 M131.25 65.07 C152.36 41.46, 171.91 19.43, 187.01 0.92 M141.88 65.03 C156.45 47.88, 172.75 28.83, 196.99 1.64 M141.88 65.03 C158.23 46.29, 174.28 28.88, 196.99 1.64 M151.85 65.75 C171.37 43.05, 188.68 20.71, 206.96 2.36 M151.85 65.75 C163.6 52.45, 173.44 40.55, 206.96 2.36 M162.48 65.72 C180.81 44.16, 202.89 23.54, 213 7.61 M162.48 65.72 C181.68 42.42, 202.43 18.8, 213 7.61 M173.11 65.68 C187.26 50.88, 200.09 34.43, 215.1 17.38 M173.11 65.68 C189.37 47.08, 204.29 29.14, 215.1 17.38 M183.74 65.65 C191.93 58.76, 200.62 46.32, 214.58 30.18 M183.74 65.65 C196.57 52.17, 207.28 36.76, 214.58 30.18 M194.37 65.62 C200.12 59.63, 204.98 54.97, 214.71 42.22 M194.37 65.62 C201 58.51, 206.67 50.03, 214.71 42.22 M206.97 63.32 C208.4 62.26, 209.82 59.67, 214.19 55.01 M206.97 63.32 C209.65 59.71, 211.95 57.15, 214.19 55.01" stroke="#b2f2bb" stroke-width="1" fill="none"></path><path d="M16.28 0 C83.9 1.1, 148.89 -1.58, 198.72 0 M16.28 0 C80.11 0.06, 145.05 -0.66, 198.72 0 M198.72 0 C209.5 -0.82, 216.85 6.39, 215 16.28 M198.72 0 C207.38 -0.68, 213.61 7.69, 215 16.28 M215 16.28 C213.42 28.62, 215.27 41.75, 215 48.85 M215 16.28 C214.07 26.78, 215.79 37.11, 215 48.85 M215 48.85 C216.48 60.88, 209.24 66.91, 198.72 65.13 M215 48.85 C216.93 57.57, 211.11 63.65, 198.72 65.13 M198.72 65.13 C130.19 64.88, 57.94 66.83, 16.28 65.13 M198.72 65.13 C155.49 65.72, 111.87 66.94, 16.28 65.13 M16.28 65.13 C4.56 64.72, 1.68 61.06, 0 48.85 M16.28 65.13 C4.99 66.85, 0.4 61.47, 0 48.85 M0 48.85 C1.05 43.27, -0.11 36.42, 0 16.28 M0 48.85 C-1.11 39.89, -0.84 29.48, 0 16.28 M0 16.28 C0.99 6.61, 7.28 -0.19, 16.28 0 M0 16.28 C0.43 5.73, 4.72 1.54, 16.28 0" stroke="#1e1e1e" stroke-width="2" fill="none"></path></g><g transform="translate(381.43910920170674 307.7191735141067) rotate(0 30.7218017578125 16.80781758957656)"><text x="0" y="23.557837133550493" font-family="Virgil, Segoe UI Emoji" font-size="26.892508143322484px" fill="#1e1e1e" text-anchor="start" style="white-space: pre;" direction="ltr" dominant-baseline="alphabetic">Home</text></g><g stroke-linecap="round" transform="translate(10 123.64811928198796) rotate(0 375.58043761260853 255.91759403590055)"><path d="M32 0 C237.81 1.17, 444.01 0.21, 719.16 0 M719.16 0 C738.93 -1, 750.74 9.61, 751.16 32 M751.16 32 C751.29 150.98, 752.94 270.82, 751.16 479.84 M751.16 479.84 C753.02 501.78, 739.78 512.41, 719.16 511.84 M719.16 511.84 C457.03 512.48, 194.95 511.81, 32 511.84 M32 511.84 C10.19 509.87, 1.7 502.92, 0 479.84 M0 479.84 C-1.48 319.15, -2.16 158.26, 0 32 M0 32 C0.68 10.41, 11.2 -1.09, 32 0" stroke="#1971c2" stroke-width="2.5" fill="none" stroke-dasharray="8 10"></path></g><g transform="translate(31.29849466635835 572.1149500997285) rotate(0 82.94952392578125 17.088124317486404)"><text x="0" y="23.950715043388954" font-family="Virgil, Segoe UI Emoji" font-size="27.340998907978257px" fill="#1971c2" text-anchor="start" style="white-space: pre;" direction="ltr" dominant-baseline="alphabetic">cartContext</text></g><g stroke-linecap="round" transform="translate(61.00665063577833 172.62586242037347) rotate(0 83.14250363555672 25.186491329338025)"><path d="M3.35 2.91 C3.35 2.91, 3.35 2.91, 3.35 2.91 M3.35 2.91 C3.35 2.91, 3.35 2.91, 3.35 2.91 M0.86 17.97 C7.5 12.5, 12.25 6.41, 15.95 0.62 M0.86 17.97 C3.15 15.18, 6.73 11.09, 15.95 0.62 M0.99 30.01 C10.76 19.65, 17.25 9.59, 26.58 0.58 M0.99 30.01 C10 19.61, 20.92 6.84, 26.58 0.58 M1.13 42.06 C16.14 28.86, 25.81 12.33, 37.21 0.55 M1.13 42.06 C15.94 26.07, 29.74 10.14, 37.21 0.55 M5.85 48.81 C17.9 33.34, 29.83 19.78, 47.84 0.51 M5.85 48.81 C14.88 38.43, 24.42 28.36, 47.84 0.51 M15.17 50.29 C25.22 39.63, 32.68 28.77, 57.81 1.23 M15.17 50.29 C33.1 31.2, 48.59 10.85, 57.81 1.23 M25.8 50.25 C32.97 38.09, 44.94 29.77, 68.44 1.2 M25.8 50.25 C34.37 39.82, 45.18 29.76, 68.44 1.2 M36.43 50.22 C49.63 33.59, 63.19 20.29, 79.07 1.16 M36.43 50.22 C44.84 40.84, 53.99 30.24, 79.07 1.16 M47.06 50.18 C59.59 35.78, 72.18 19.57, 89.7 1.13 M47.06 50.18 C58.83 36.45, 71.3 22.76, 89.7 1.13 M57.69 50.15 C66.07 39.63, 76.37 25.73, 100.33 1.09 M57.69 50.15 C66.35 40.13, 75.97 28.85, 100.33 1.09 M68.32 50.12 C80.73 35.1, 96.07 19.49, 110.97 1.06 M68.32 50.12 C77.87 38.23, 88.61 26.95, 110.97 1.06 M78.95 50.08 C85.63 40.92, 94.54 29.58, 121.6 1.03 M78.95 50.08 C93.95 32.94, 108.4 16.42, 121.6 1.03 M89.58 50.05 C105.99 32.38, 121.66 16.11, 132.23 0.99 M89.58 50.05 C104.92 32.56, 118.1 17.79, 132.23 0.99 M99.56 50.77 C112.51 36.84, 122.32 20.32, 142.86 0.96 M99.56 50.77 C112.61 37.99, 123.85 22.97, 142.86 0.96 M110.19 50.73 C121.85 35.57, 135.96 23.55, 152.83 1.68 M110.19 50.73 C124.26 34.85, 138.95 18.2, 152.83 1.68 M120.82 50.7 C139.06 32.27, 152.33 13.34, 162.15 3.15 M120.82 50.7 C133.18 36.67, 145.66 20.88, 162.15 3.15 M131.45 50.66 C140.64 38.99, 148.3 32.6, 166.87 9.91 M131.45 50.66 C145.01 34.82, 157.87 18.82, 166.87 9.91 M142.08 50.63 C147.28 43.41, 154.01 33.48, 166.35 22.7 M142.08 50.63 C147.54 44.36, 153.86 37.88, 166.35 22.7 M152.71 50.59 C155.53 43.19, 162.95 38.48, 166.48 34.75 M152.71 50.59 C156.91 44.67, 162.18 38.28, 166.48 34.75" stroke="#b2f2bb" stroke-width="1" fill="none"></path><path d="M12.59 0 C44.66 -1.83, 73.26 -1.64, 153.69 0 M12.59 0 C46.38 -0.22, 81.69 1.13, 153.69 0 M153.69 0 C161.21 0.77, 165.57 5.88, 166.29 12.59 M153.69 0 C163.57 -1.73, 164.36 6.45, 166.29 12.59 M166.29 12.59 C166.86 19.25, 167.3 21.19, 166.29 37.78 M166.29 12.59 C167.15 20.16, 166.71 28.18, 166.29 37.78 M166.29 37.78 C165.5 44.2, 163.68 50.28, 153.69 50.37 M166.29 37.78 C167.99 44.27, 163.89 50.77, 153.69 50.37 M153.69 50.37 C116.03 50.54, 75.56 51.87, 12.59 50.37 M153.69 50.37 C102.6 49.75, 49.45 49.52, 12.59 50.37 M12.59 50.37 C3.8 50.84, 0.74 44.74, 0 37.78 M12.59 50.37 C2.91 51.84, -0.33 44.33, 0 37.78 M0 37.78 C-1.7 29.61, -0.18 21.47, 0 12.59 M0 37.78 C-0.64 33.22, 0.12 27.07, 0 12.59 M0 12.59 C0.24 4.6, 5.48 1.09, 12.59 0 M0 12.59 C-0.97 5.79, 4.22 0.4, 12.59 0" stroke="#1e1e1e" stroke-width="2" fill="none"></path></g><g transform="translate(115.25176504471125 184.96999108530773) rotate(0 30.072762712236937 12.999479395787375)"><text x="0" y="18.220070321135587" font-family="Virgil, Segoe UI Emoji" font-size="20.7991670332598px" fill="#1e1e1e" text-anchor="start" style="white-space: pre;" direction="ltr" dominant-baseline="alphabetic">Sign-in</text></g><g stroke-linecap="round" transform="translate(63.53106451861231 242.91806251115318) rotate(0 83.14250363555672 25.186491329338025)"><path d="M3.35 2.91 C3.35 2.91, 3.35 2.91, 3.35 2.91 M3.35 2.91 C3.35 2.91, 3.35 2.91, 3.35 2.91 M0.86 17.97 C6.01 14.08, 9.5 8.81, 15.95 0.62 M0.86 17.97 C3.48 14.7, 7.06 9.5, 15.95 0.62 M0.99 30.01 C8.41 21.63, 12.28 14.99, 26.58 0.58 M0.99 30.01 C6.08 22.32, 13.07 15.69, 26.58 0.58 M1.13 42.06 C11.8 27.25, 22.23 16.65, 37.21 0.55 M1.13 42.06 C8.98 32.42, 15.9 24.64, 37.21 0.55 M5.85 48.81 C17.89 34.95, 26.16 23.54, 47.84 0.51 M5.85 48.81 C19.61 34.17, 32.66 20.06, 47.84 0.51 M15.17 50.29 C25.87 37.04, 38.21 23.35, 57.81 1.23 M15.17 50.29 C26.2 38.88, 35.67 26.46, 57.81 1.23 M25.8 50.25 C43.94 31.94, 58.9 11.64, 68.44 1.2 M25.8 50.25 C42.63 30.73, 58.57 12.48, 68.44 1.2 M36.43 50.22 C47.01 39.05, 52.57 28.29, 79.07 1.16 M36.43 50.22 C50.39 34.32, 66.97 16.92, 79.07 1.16 M47.06 50.18 C62.91 33.64, 74.39 18.99, 89.7 1.13 M47.06 50.18 C59.26 34.53, 73.09 19.67, 89.7 1.13 M57.69 50.15 C66.83 37.77, 75.73 28.65, 100.33 1.09 M57.69 50.15 C69.31 37.03, 81.51 21.56, 100.33 1.09 M68.32 50.12 C80.01 34.3, 92.66 20.08, 110.97 1.06 M68.32 50.12 C78.7 37.87, 91.31 24.46, 110.97 1.06 M78.95 50.08 C89.49 35.39, 101.46 25.58, 121.6 1.03 M78.95 50.08 C89.01 37.19, 101.02 25.29, 121.6 1.03 M89.58 50.05 C100.13 38.72, 113.81 24.95, 132.23 0.99 M89.58 50.05 C99.41 39.48, 108.66 28.57, 132.23 0.99 M99.56 50.77 C112.05 37.41, 121.37 27.35, 142.86 0.96 M99.56 50.77 C115.07 32.86, 128.5 15.96, 142.86 0.96 M110.19 50.73 C120.76 39.85, 127.59 26.92, 152.83 1.68 M110.19 50.73 C124.38 35.56, 137.42 17.74, 152.83 1.68 M120.82 50.7 C131.94 34.89, 144.27 21.31, 162.15 3.15 M120.82 50.7 C133.19 37.96, 144.79 23.82, 162.15 3.15 M131.45 50.66 C143.23 34.78, 158.58 19.68, 166.87 9.91 M131.45 50.66 C142.15 38.81, 152.08 26.64, 166.87 9.91 M142.08 50.63 C147.74 45.32, 154.46 37.33, 166.35 22.7 M142.08 50.63 C150.09 41.67, 159.48 32.17, 166.35 22.7 M152.71 50.59 C159.18 43.15, 164.72 39.29, 166.48 34.75 M152.71 50.59 C155.41 47.91, 158.66 43.74, 166.48 34.75" stroke="#b2f2bb" stroke-width="1" fill="none"></path><path d="M12.59 0 C59.73 -0.48, 110.17 -1.72, 153.69 0 M12.59 0 C41.71 -1.11, 71.56 0.04, 153.69 0 M153.69 0 C161.76 -1.92, 166.71 3.93, 166.29 12.59 M153.69 0 C161.89 -1.13, 165.98 6.19, 166.29 12.59 M166.29 12.59 C167.1 21.21, 166.05 26.72, 166.29 37.78 M166.29 12.59 C166.37 20.87, 166.43 29.26, 166.29 37.78 M166.29 37.78 C164.93 48.12, 161.51 50.93, 153.69 50.37 M166.29 37.78 C167.91 43.89, 162.63 50.91, 153.69 50.37 M153.69 50.37 C124.76 50.79, 92.15 50.18, 12.59 50.37 M153.69 50.37 C101.2 50.24, 46.98 49.98, 12.59 50.37 M12.59 50.37 C3.25 52.15, -0.64 47.01, 0 37.78 M12.59 50.37 C6.44 51.45, 0.9 44.33, 0 37.78 M0 37.78 C-0.58 28.45, -1.45 21.38, 0 12.59 M0 37.78 C0.45 29.84, -0.02 21.73, 0 12.59 M0 12.59 C1.4 5.52, 3.26 1.83, 12.59 0 M0 12.59 C-0.04 3.19, 4.52 1.82, 12.59 0" stroke="#1e1e1e" stroke-width="2" fill="none"></path></g><g transform="translate(84.5191774733226 255.2197016370504) rotate(0 57.70187963823588 12.999479395787375)"><text x="0" y="18.220070321135587" font-family="Virgil, Segoe UI Emoji" font-size="20.7991670332598px" fill="#1e1e1e" text-anchor="start" style="white-space: pre;" direction="ltr" dominant-baseline="alphabetic">My Account</text></g><g stroke-linecap="round" transform="translate(64.99292271747879 316.0109724544769) rotate(0 83.14250363555672 25.186491329338025)"><path d="M3.35 2.91 C3.35 2.91, 3.35 2.91, 3.35 2.91 M3.35 2.91 C3.35 2.91, 3.35 2.91, 3.35 2.91 M0.86 17.97 C5.38 11.52, 8.77 7.6, 15.95 0.62 M0.86 17.97 C5.92 11.45, 11.7 5.49, 15.95 0.62 M0.99 30.01 C7.22 21.81, 11.69 18.12, 26.58 0.58 M0.99 30.01 C9.06 20.45, 17.18 11.03, 26.58 0.58 M1.13 42.06 C15.35 25.26, 27.18 10.37, 37.21 0.55 M1.13 42.06 C12.6 30.38, 23.02 16.05, 37.21 0.55 M5.85 48.81 C16.81 33.78, 32.34 21.12, 47.84 0.51 M5.85 48.81 C19.07 33.35, 32.69 19.24, 47.84 0.51 M15.17 50.29 C24.17 36.26, 35.69 27.14, 57.81 1.23 M15.17 50.29 C30.31 33.16, 44.67 17.53, 57.81 1.23 M25.8 50.25 C39.71 33.65, 53.94 18.65, 68.44 1.2 M25.8 50.25 C42.55 31.69, 60.18 11.16, 68.44 1.2 M36.43 50.22 C48.26 39.78, 56.8 27.17, 79.07 1.16 M36.43 50.22 C47.75 38.12, 58.56 24.84, 79.07 1.16 M47.06 50.18 C61.69 34.38, 78.67 16.23, 89.7 1.13 M47.06 50.18 C57.25 38.81, 66.8 27.09, 89.7 1.13 M57.69 50.15 C65.68 40.57, 76.57 25.45, 100.33 1.09 M57.69 50.15 C67.78 40.51, 76.43 30.07, 100.33 1.09 M68.32 50.12 C85.47 34.13, 99.85 15.83, 110.97 1.06 M68.32 50.12 C79.18 37.91, 89.65 25.34, 110.97 1.06 M78.95 50.08 C95.79 32.49, 110.06 13.15, 121.6 1.03 M78.95 50.08 C91.08 35.23, 104.24 19.06, 121.6 1.03 M89.58 50.05 C101.93 36.81, 112.36 23.55, 132.23 0.99 M89.58 50.05 C101.54 36.83, 113.59 22.35, 132.23 0.99 M99.56 50.77 C110.94 37.27, 121.57 24.7, 142.86 0.96 M99.56 50.77 C109.32 39.83, 118.43 27.64, 142.86 0.96 M110.19 50.73 C121.81 33.45, 137.08 20.98, 152.83 1.68 M110.19 50.73 C120.91 38.28, 131.86 25.45, 152.83 1.68 M120.82 50.7 C135.48 35.24, 149.92 17.39, 162.15 3.15 M120.82 50.7 C130.41 40.29, 140.77 29.51, 162.15 3.15 M131.45 50.66 C143.52 36.43, 152.71 23.59, 166.87 9.91 M131.45 50.66 C142.78 38.03, 153.19 23.71, 166.87 9.91 M142.08 50.63 C149.41 45.32, 151.72 38.02, 166.35 22.7 M142.08 50.63 C150.01 41.96, 157.17 33.36, 166.35 22.7 M152.71 50.59 C157.05 44.65, 161.96 39.62, 166.48 34.75 M152.71 50.59 C157.9 44.9, 162.91 39.54, 166.48 34.75" stroke="#b2f2bb" stroke-width="1" fill="none"></path><path d="M12.59 0 C67.64 -0.47, 117.88 -1.18, 153.69 0 M12.59 0 C49.1 -0.98, 86.52 -0.3, 153.69 0 M153.69 0 C160.6 -1.35, 165.68 4.27, 166.29 12.59 M153.69 0 C163.59 -1.07, 164.41 2.13, 166.29 12.59 M166.29 12.59 C165.56 23.29, 168.11 33.45, 166.29 37.78 M166.29 12.59 C165.87 19.21, 165.74 25.45, 166.29 37.78 M166.29 37.78 C165.38 45.8, 162.57 48.72, 153.69 50.37 M166.29 37.78 C164.24 46.06, 161.41 49.93, 153.69 50.37 M153.69 50.37 C107.52 52.89, 61.7 50.54, 12.59 50.37 M153.69 50.37 C108.13 51.83, 61.68 51.15, 12.59 50.37 M12.59 50.37 C3.12 51.74, 1.92 45.02, 0 37.78 M12.59 50.37 C2.92 51.87, -0.65 45.47, 0 37.78 M0 37.78 C-0.04 32.13, 2.04 26.07, 0 12.59 M0 37.78 C-0.93 30.49, 0.72 23.16, 0 12.59 M0 12.59 C1.48 3.14, 3.45 0.23, 12.59 0 M0 12.59 C-0.59 5.48, 3.9 2.28, 12.59 0" stroke="#1e1e1e" stroke-width="2" fill="none"></path></g><g transform="translate(98.40683036255405 332.69818617697354) rotate(0 51.941040178661325 12.999479395787375)"><text x="0" y="18.220070321135587" font-family="Virgil, Segoe UI Emoji" font-size="20.7991670332598px" fill="#1e1e1e" text-anchor="start" style="white-space: pre;" direction="ltr" dominant-baseline="alphabetic">Not Found</text></g><g stroke-linecap="round" transform="translate(526.7216575316096 200.1425550665842) rotate(0 83.87343273498993 25.407912848058828)"><path d="M1.51 5.28 C1.51 5.28, 1.51 5.28, 1.51 5.28 M1.51 5.28 C1.51 5.28, 1.51 5.28, 1.51 5.28 M0.33 18.83 C7.16 14.22, 12.04 5.2, 16.73 -0.03 M0.33 18.83 C5.24 12.01, 10.99 6.41, 16.73 -0.03 M0.46 30.88 C8.13 20.23, 19.59 12.64, 27.36 -0.07 M0.46 30.88 C10.92 19.76, 19.92 8.4, 27.36 -0.07 M1.25 42.16 C17.1 26.32, 32.04 8.44, 37.99 -0.1 M1.25 42.16 C10.23 31.49, 18.71 22.17, 37.99 -0.1 M5.98 48.92 C16.59 35.91, 29.95 23.35, 48.62 -0.14 M5.98 48.92 C16.06 37.3, 26.19 25.35, 48.62 -0.14 M15.29 50.39 C29.12 36.82, 41.77 22.53, 58.59 0.58 M15.29 50.39 C27.64 35.25, 40.29 21.52, 58.59 0.58 M25.92 50.36 C40.83 32.09, 54.71 15.9, 69.22 0.55 M25.92 50.36 C40.19 32.91, 54.32 16.97, 69.22 0.55 M36.55 50.33 C54.39 29.18, 71.14 12.92, 79.85 0.51 M36.55 50.33 C51.82 33.39, 65.88 15.32, 79.85 0.51 M47.18 50.29 C59.74 38.09, 68.21 24.88, 90.48 0.48 M47.18 50.29 C63.17 30.79, 81.73 10.92, 90.48 0.48 M57.81 50.26 C71.34 38.14, 80.93 21.95, 101.11 0.45 M57.81 50.26 C71.48 32.79, 87.35 15.84, 101.11 0.45 M67.79 50.98 C76.57 39.39, 87.18 28.57, 111.74 0.41 M67.79 50.98 C83.05 32.84, 99.56 14.61, 111.74 0.41 M78.42 50.94 C91.58 34.38, 102.09 22.21, 122.37 0.38 M78.42 50.94 C88.83 37.35, 101.04 25.08, 122.37 0.38 M89.05 50.91 C97.88 38.85, 107.58 27.66, 133 0.34 M89.05 50.91 C103.37 33.59, 118.29 17.21, 133 0.34 M99.68 50.87 C115.08 34.23, 128.64 16.16, 142.98 1.06 M99.68 50.87 C116.3 31.62, 131.93 13.55, 142.98 1.06 M110.31 50.84 C120.15 39.83, 127.92 27.48, 153.61 1.03 M110.31 50.84 C120.96 40.65, 129.62 28.42, 153.61 1.03 M120.94 50.8 C134.02 39.05, 144.32 21.83, 162.93 2.5 M120.94 50.8 C131.65 39.34, 140.72 27.17, 162.93 2.5 M131.57 50.77 C137.63 41.63, 144.48 33.03, 167.65 9.26 M131.57 50.77 C142.33 38.56, 152.6 27, 167.65 9.26 M142.2 50.74 C149.42 45.92, 151.99 38.05, 167.78 21.3 M142.2 50.74 C150.29 41.29, 157.97 33.69, 167.78 21.3 M152.83 50.7 C157.81 44.89, 158.52 42.63, 167.92 33.34 M152.83 50.7 C159.34 43.47, 165.22 36.87, 167.92 33.34" stroke="#b2f2bb" stroke-width="1" fill="none"></path><path d="M12.7 0 C50.74 -0.16, 91.44 -1.33, 155.04 0 M12.7 0 C54.75 0.47, 96.96 2.22, 155.04 0 M155.04 0 C161.97 1.07, 168.41 4.19, 167.75 12.7 M155.04 0 C164.88 -0.03, 166.6 5.02, 167.75 12.7 M167.75 12.7 C168 24.31, 167.04 34.22, 167.75 38.11 M167.75 12.7 C167.26 22.65, 167.48 31.97, 167.75 38.11 M167.75 38.11 C168.52 44.65, 162.54 49.54, 155.04 50.82 M167.75 38.11 C167.99 47.52, 162.79 49.1, 155.04 50.82 M155.04 50.82 C99.96 50.47, 44.07 51.87, 12.7 50.82 M155.04 50.82 C125.98 49.85, 97.84 50.39, 12.7 50.82 M12.7 50.82 C6.16 48.88, -0.81 47.99, 0 38.11 M12.7 50.82 C2.17 50.66, -0.06 44.66, 0 38.11 M0 38.11 C0.21 28.89, -1.41 18.53, 0 12.7 M0 38.11 C0.73 29.54, 0.8 21.17, 0 12.7 M0 12.7 C0.49 3.42, 3.21 0.09, 12.7 0 M0 12.7 C0.96 4.84, 2.93 0.3, 12.7 0" stroke="#1e1e1e" stroke-width="2" fill="none"></path></g><g transform="translate(582.2238739545909 211.07763155201891) rotate(0 34.73246836961778 13.113761469965851)"><text x="0" y="18.380248076304145" font-family="Virgil, Segoe UI Emoji" font-size="20.98201835194537px" fill="#1e1e1e" text-anchor="start" style="white-space: pre;" direction="ltr" dominant-baseline="alphabetic">Header</text></g><g stroke-linecap="round" transform="translate(556.9636636308227 323.9457675352371) rotate(0 83.87343273498993 25.407912848058828)"><path d="M1.51 5.28 C1.51 5.28, 1.51 5.28, 1.51 5.28 M1.51 5.28 C1.51 5.28, 1.51 5.28, 1.51 5.28 M4.92 13.55 C9.01 11.03, 11.89 5.82, 14.76 2.23 M4.92 13.55 C6.92 11.29, 9.45 7.93, 14.76 2.23 M5.05 25.59 C11.39 18.47, 16.13 11.75, 25.39 2.2 M5.05 25.59 C12.95 16.79, 19.95 7.6, 25.39 2.2 M1.25 42.16 C8.75 32.9, 17.42 22.13, 36.02 2.16 M1.25 42.16 C11.9 29.53, 25 16.24, 36.02 2.16 M5.98 48.92 C17.27 38.72, 25.32 28.3, 46.65 2.13 M5.98 48.92 C16.25 37.29, 25.33 27.31, 46.65 2.13 M12.01 54.17 C26.8 37.85, 38.06 23.88, 57.28 2.09 M12.01 54.17 C26.05 36.93, 41.19 21.37, 57.28 2.09 M22.64 54.13 C35.88 41.17, 47.97 27.85, 67.91 2.06 M22.64 54.13 C37.18 37.52, 50.97 22.3, 67.91 2.06 M33.27 54.1 C46.19 40.12, 58.83 25.2, 78.54 2.02 M33.27 54.1 C43.11 41.44, 55.18 30.82, 78.54 2.02 M43.9 54.06 C54.21 41.53, 66.83 28.51, 88.52 2.74 M43.9 54.06 C57.09 40.15, 71.01 24.63, 88.52 2.74 M53.88 54.78 C70.26 36.35, 83.05 19.73, 99.15 2.71 M53.88 54.78 C64.86 42.6, 76.58 29.59, 99.15 2.71 M64.51 54.75 C79.57 35.93, 97 19.72, 109.78 2.68 M64.51 54.75 C77.62 40.67, 89.8 27.36, 109.78 2.68 M75.14 54.72 C89.31 36.91, 106.95 18.45, 120.41 2.64 M75.14 54.72 C88.61 39.6, 102.38 22.59, 120.41 2.64 M85.77 54.68 C94.73 44.2, 106.44 31.91, 131.04 2.61 M85.77 54.68 C95.13 43.12, 106.48 30.74, 131.04 2.61 M96.4 54.65 C108.8 40.16, 119.62 26.34, 141.67 2.57 M96.4 54.65 C111.04 37.83, 125.23 22.88, 141.67 2.57 M107.03 54.61 C121.49 35.87, 135.72 19.24, 152.3 2.54 M107.03 54.61 C124.48 35.17, 142.79 15.23, 152.3 2.54 M117.66 54.58 C132.01 34.65, 150.74 18.2, 162.93 2.5 M117.66 54.58 C133.12 36.15, 147.41 18.54, 162.93 2.5 M128.29 54.54 C138.1 41.33, 150.2 29.74, 169.62 7 M128.29 54.54 C140.1 42.54, 149.93 30.02, 169.62 7 M138.26 55.26 C152.79 38.72, 164.38 25.84, 173.69 14.51 M138.26 55.26 C146.52 46.73, 153.17 37.66, 173.69 14.51 M148.89 55.23 C152.48 48.51, 160.76 40.94, 173.17 27.3 M148.89 55.23 C153.71 49.76, 158.94 43.4, 173.17 27.3" stroke="#b2f2bb" stroke-width="1" fill="none"></path><path d="M12.7 0 C45.3 -1.51, 75.01 0.1, 155.04 0 M12.7 0 C51.41 -1.84, 88.96 -0.2, 155.04 0 M155.04 0 C162.61 -1.11, 168.55 5.2, 167.75 12.7 M155.04 0 C163.35 -0.51, 168.1 2.31, 167.75 12.7 M167.75 12.7 C168.61 21.86, 169.25 31.26, 167.75 38.11 M167.75 12.7 C168.42 21.19, 166.99 31.08, 167.75 38.11 M167.75 38.11 C169.45 47.95, 163.46 52.62, 155.04 50.82 M167.75 38.11 C165.62 48.56, 162.79 50.26, 155.04 50.82 M155.04 50.82 C127.7 52.51, 94.86 51.83, 12.7 50.82 M155.04 50.82 C104.24 49.3, 52.41 49.54, 12.7 50.82 M12.7 50.82 C4.23 50.04, -1.72 46.62, 0 38.11 M12.7 50.82 C3.66 48.74, -0.96 48.15, 0 38.11 M0 38.11 C-1.36 30.01, 0.4 19.78, 0 12.7 M0 38.11 C0.96 29.97, -0.63 23.38, 0 12.7 M0 12.7 C-1.77 3.94, 2.44 0.53, 12.7 0 M0 12.7 C1.02 3.07, 3.99 -1.7, 12.7 0" stroke="#1e1e1e" stroke-width="2" fill="none"></path></g><g transform="translate(607.7405666008018 337.71603209247303) rotate(0 32.949073791503906 13.113761469965851)"><text x="0" y="18.380248076304145" font-family="Virgil, Segoe UI Emoji" font-size="20.98201835194537px" fill="#1e1e1e" text-anchor="start" style="white-space: pre;" direction="ltr" dominant-baseline="alphabetic">Filters</text></g><g stroke-linecap="round" transform="translate(301.79673716871355 168.01042358617062) rotate(0 77.8626307834831 23.58705101910074)"><path d="M3.14 2.73 C3.14 2.73, 3.14 2.73, 3.14 2.73 M3.14 2.73 C3.14 2.73, 3.14 2.73, 3.14 2.73 M-0.01 18.54 C5.02 13.59, 4.89 11.41, 15.74 0.43 M-0.01 18.54 C5.36 11.37, 11.14 6.77, 15.74 0.43 M0.13 30.58 C5.77 25.52, 11.54 18.58, 26.37 0.4 M0.13 30.58 C8.21 23.01, 14.32 13.58, 26.37 0.4 M1.57 41.12 C14.1 29.57, 21.93 15.35, 37 0.36 M1.57 41.12 C13.43 26.59, 25.98 13.44, 37 0.36 M6.95 47.12 C18.51 33.04, 32.5 15.49, 47.63 0.33 M6.95 47.12 C19.52 32.03, 32.71 18.16, 47.63 0.33 M17.58 47.08 C30.43 32.9, 43.71 14.17, 58.26 0.29 M17.58 47.08 C30.83 30.7, 45.29 15.53, 58.26 0.29 M28.21 47.05 C38.35 38.46, 47.26 27.73, 68.89 0.26 M28.21 47.05 C38.63 35.6, 47.84 25.31, 68.89 0.26 M38.84 47.02 C51.7 36.08, 61.74 23.11, 79.52 0.22 M38.84 47.02 C47.48 36.86, 57.35 25.6, 79.52 0.22 M49.47 46.98 C61.74 31.43, 74.63 16.18, 89.49 0.94 M49.47 46.98 C62.93 32.69, 76.34 16.21, 89.49 0.94 M60.1 46.95 C76.51 30.55, 90.72 12.19, 100.12 0.91 M60.1 46.95 C76.92 29.85, 90.78 10.53, 100.12 0.91 M70.73 46.91 C80.32 34.48, 90.56 22.09, 110.75 0.87 M70.73 46.91 C80.12 35.4, 89.34 23.37, 110.75 0.87 M80.71 47.63 C97.62 29.29, 111.6 12.18, 121.38 0.84 M80.71 47.63 C93.17 33.11, 107.12 17.17, 121.38 0.84 M91.34 47.6 C103.17 31.31, 117.35 18.27, 132.01 0.81 M91.34 47.6 C99.78 37.61, 107.45 28.07, 132.01 0.81 M101.97 47.56 C115.33 33.31, 128.69 16.58, 142.64 0.77 M101.97 47.56 C115.52 33.65, 126.08 19.95, 142.64 0.77 M112.6 47.53 C122.72 36.19, 132.99 23.69, 151.96 2.25 M112.6 47.53 C126.75 31.21, 143.79 12.61, 151.96 2.25 M123.23 47.49 C131.59 36.38, 139.99 27.31, 156.03 9.76 M123.23 47.49 C135.47 33.09, 147.31 18.48, 156.03 9.76 M133.86 47.46 C142.86 39.77, 151.35 26.45, 156.16 21.8 M133.86 47.46 C141.72 37.53, 150.46 28.09, 156.16 21.8 M144.49 47.43 C148.48 45.22, 150.35 41.31, 155.64 34.59 M144.49 47.43 C146.51 44.01, 149.55 42.97, 155.64 34.59" stroke="#a5d8ff" stroke-width="1" fill="none"></path><path d="M11.79 0 C54.66 1.89, 99.65 0.99, 143.93 0 M11.79 0 C55.09 1.27, 100.7 1.48, 143.93 0 M143.93 0 C149.97 0.45, 154.8 4.94, 155.73 11.79 M143.93 0 C149.63 -2.28, 157.48 2.68, 155.73 11.79 M155.73 11.79 C154.1 21, 154.32 26.58, 155.73 35.38 M155.73 11.79 C156.07 19.53, 156.65 25.45, 155.73 35.38 M155.73 35.38 C156.24 42.96, 152.23 48.84, 143.93 47.17 M155.73 35.38 C157.09 42.29, 150.63 47.17, 143.93 47.17 M143.93 47.17 C103.88 47.03, 65.51 48.87, 11.79 47.17 M143.93 47.17 C116.23 47.23, 87.5 47.03, 11.79 47.17 M11.79 47.17 C4.06 46.1, -0.06 41.64, 0 35.38 M11.79 47.17 C5.99 48.88, -0.01 41.09, 0 35.38 M0 35.38 C0.52 29.38, 1.18 23.47, 0 11.79 M0 35.38 C-0.01 30.16, 0.85 22.8, 0 11.79 M0 11.79 C0.62 4.64, 3.48 -0.68, 11.79 0 M0 11.79 C1.81 2.97, 3.08 -2.01, 11.79 0" stroke="#1e1e1e" stroke-width="2" fill="none"></path></g><g transform="translate(346.4762565060339 180.8998852168308) rotate(0 35.62254703446433 12.173961816310069)"><text x="0" y="17.063024881740184" font-family="Virgil, Segoe UI Emoji" font-size="19.478338906096102px" fill="#1e1e1e" text-anchor="start" style="white-space: pre;" direction="ltr" dominant-baseline="alphabetic">NavBar</text></g><g stroke-linecap="round"><g transform="translate(378.6450576636895 97.95266689822523) rotate(0 -0.050094094918051724 33.07719417101406)"><path d="M0.05 0.42 C-0.22 11.46, -0.45 55.05, -0.52 65.9 M-1.38 -0.4 C-1.94 10.85, -1.71 56.15, -1.69 67.3" stroke="#1971c2" stroke-width="2" fill="none"></path></g><g transform="translate(378.6450576636895 97.95266689822523) rotate(0 -0.050094094918051724 33.07719417101406)"><path d="M-10.3 43.83 C-6.3 52.3, -4.07 61.75, -1.69 67.3 M-10.3 43.83 C-7.69 49.08, -5.05 55.37, -1.69 67.3" stroke="#1971c2" stroke-width="2" fill="none"></path></g><g transform="translate(378.6450576636895 97.95266689822523) rotate(0 -0.050094094918051724 33.07719417101406)"><path d="M6.8 43.78 C4.12 52.27, -0.33 61.74, -1.69 67.3 M6.8 43.78 C5.18 49.04, 3.59 55.35, -1.69 67.3" stroke="#1971c2" stroke-width="2" fill="none"></path></g></g><mask></mask><g stroke-linecap="round"><g transform="translate(297.9350631674774 186.7885598146631) rotate(0 -32.39480857031535 -0.2920566077825981)"><path d="M0 0 C-5.43 0.2, -10.86 0.4, -25.52 0.95 M0 0 C-9.47 0.35, -18.94 0.7, -25.52 0.95 M-25.52 0.95 C-40.38 0.01, -55.25 -0.93, -64.79 -1.53 M-25.52 0.95 C-39.34 0.07, -53.17 -0.8, -64.79 -1.53" stroke="#1971c2" stroke-width="2" fill="none"></path></g><g transform="translate(297.9350631674774 186.7885598146631) rotate(0 -32.39480857031535 -0.2920566077825981)"><path d="M-45.91 -7.08 C-49.93 -5.9, -53.95 -4.72, -64.79 -1.53 M-45.91 -7.08 C-52.92 -5.02, -59.93 -2.96, -64.79 -1.53" stroke="#1971c2" stroke-width="2" fill="none"></path></g><g transform="translate(297.9350631674774 186.7885598146631) rotate(0 -32.39480857031535 -0.2920566077825981)"><path d="M-46.76 6.35 C-50.6 4.67, -54.44 3, -64.79 -1.53 M-46.76 6.35 C-53.45 3.43, -60.14 0.5, -64.79 -1.53" stroke="#1971c2" stroke-width="2" fill="none"></path></g></g><mask></mask><g stroke-linecap="round"><g transform="translate(272.41837052126664 263.33863775329564) rotate(0 -20.791379193208968 0.7325543984293574)"><path d="M0 0 C-13.93 0.49, -27.86 0.98, -41.58 1.47 M0 0 C-12.86 0.45, -25.72 0.91, -41.58 1.47" stroke="#1971c2" stroke-width="2" fill="none"></path></g><g transform="translate(272.41837052126664 263.33863775329564) rotate(0 -20.791379193208968 0.7325543984293574)"><path d="M-22.3 -6.33 C-28.76 -3.72, -35.22 -1.11, -41.58 1.47 M-22.3 -6.33 C-28.26 -3.92, -34.23 -1.51, -41.58 1.47" stroke="#1971c2" stroke-width="2" fill="none"></path></g><g transform="translate(272.41837052126664 263.33863775329564) rotate(0 -20.791379193208968 0.7325543984293574)"><path d="M-21.79 7.89 C-28.42 5.74, -35.05 3.58, -41.58 1.47 M-21.79 7.89 C-27.91 5.9, -34.03 3.92, -41.58 1.47" stroke="#1971c2" stroke-width="2" fill="none"></path></g></g><mask></mask><g stroke-linecap="round"><g transform="translate(272.41837052126647 186.7885598146631) rotate(0 -16.066065740206795 78.48687798538481)"><path d="M0 0 C0.33 54.76, 0.66 109.52, 0.95 155.94 M0 0 C0.26 43.41, 0.53 86.81, 0.95 155.94 M0.95 155.94 C-7.84 156.2, -16.63 156.47, -33.08 156.97 M0.95 155.94 C-7.21 156.18, -15.36 156.43, -33.08 156.97" stroke="#1971c2" stroke-width="2" fill="none"></path></g><g transform="translate(272.41837052126647 186.7885598146631) rotate(0 -16.066065740206795 78.48687798538481)"><path d="M-17.27 150.67 C-22.82 152.88, -28.37 155.1, -33.08 156.97 M-17.27 150.67 C-21.67 152.42, -26.07 154.18, -33.08 156.97" stroke="#1971c2" stroke-width="2" fill="none"></path></g><g transform="translate(272.41837052126647 186.7885598146631) rotate(0 -16.066065740206795 78.48687798538481)"><path d="M-16.91 162.3 C-22.59 160.43, -28.27 158.56, -33.08 156.97 M-16.91 162.3 C-21.41 160.82, -25.91 159.34, -33.08 156.97" stroke="#1971c2" stroke-width="2" fill="none"></path></g></g><mask></mask><g stroke-linecap="round" transform="translate(344.32455824573174 398.605720092669) rotate(0 83.87343273498993 25.407912848058828)"><path d="M1.51 5.28 C1.51 5.28, 1.51 5.28, 1.51 5.28 M1.51 5.28 C1.51 5.28, 1.51 5.28, 1.51 5.28 M0.33 18.83 C4.41 15.96, 6.43 9.58, 16.73 -0.03 M0.33 18.83 C2.67 14.96, 6.61 10.42, 16.73 -0.03 M0.46 30.88 C7.14 23.21, 15.59 16.79, 27.36 -0.07 M0.46 30.88 C9.95 20.58, 19.37 9.89, 27.36 -0.07 M1.25 42.16 C15.09 26.73, 26.17 11.05, 37.99 -0.1 M1.25 42.16 C15.38 25.53, 29.22 11.18, 37.99 -0.1 M5.98 48.92 C20.67 30.64, 37.49 10.14, 48.62 -0.14 M5.98 48.92 C18.95 34.11, 30.55 19.7, 48.62 -0.14 M15.29 50.39 C26.2 36.53, 40.74 20.59, 58.59 0.58 M15.29 50.39 C31.72 31.31, 46.85 14.17, 58.59 0.58 M25.92 50.36 C36.28 37.14, 50.1 23.62, 69.22 0.55 M25.92 50.36 C37.77 36.22, 50.33 24.21, 69.22 0.55 M36.55 50.33 C48.88 34.28, 62.77 19.48, 79.85 0.51 M36.55 50.33 C52.47 32.93, 69.86 13.71, 79.85 0.51 M47.18 50.29 C58.64 39.61, 67.86 25.38, 90.48 0.48 M47.18 50.29 C58.7 37.99, 70.02 22.96, 90.48 0.48 M57.81 50.26 C66.86 39.09, 76.93 29.91, 101.11 0.45 M57.81 50.26 C68.87 37.01, 80.56 24.02, 101.11 0.45 M67.79 50.98 C80.61 37.03, 90.43 23.22, 111.74 0.41 M67.79 50.98 C80.08 36.57, 92.36 22.94, 111.74 0.41 M78.42 50.94 C92.11 32.68, 108.1 18.63, 122.37 0.38 M78.42 50.94 C95.99 30.77, 112.55 11.74, 122.37 0.38 M89.05 50.91 C104.93 32.81, 119.79 16.56, 133 0.34 M89.05 50.91 C100.18 36.42, 113.29 23.45, 133 0.34 M99.68 50.87 C115.87 30.56, 135.01 10.51, 142.98 1.06 M99.68 50.87 C115.48 31.74, 132.73 11.9, 142.98 1.06 M110.31 50.84 C119.39 39.27, 130.81 23.97, 153.61 1.03 M110.31 50.84 C126.75 31.3, 145.36 10.8, 153.61 1.03 M120.94 50.8 C130.8 39.29, 139.6 27.7, 162.93 2.5 M120.94 50.8 C135.63 33.26, 151.4 15.33, 162.93 2.5 M131.57 50.77 C143.97 35.05, 155.88 20.96, 167.65 9.26 M131.57 50.77 C144.02 36.41, 157.98 19.38, 167.65 9.26 M142.2 50.74 C150.4 38.96, 162.01 28.42, 167.78 21.3 M142.2 50.74 C149.58 41.95, 156.98 32.35, 167.78 21.3 M152.83 50.7 C156 46.05, 163.89 39.76, 167.92 33.34 M152.83 50.7 C156.85 45.57, 162.47 40.23, 167.92 33.34" stroke="#b2f2bb" stroke-width="1" fill="none"></path><path d="M12.7 0 C45.03 0.69, 74.81 -0.59, 155.04 0 M12.7 0 C70.26 -1.1, 126.62 -0.82, 155.04 0 M155.04 0 C165 -0.71, 166.62 5.36, 167.75 12.7 M155.04 0 C164.29 -1.41, 168.76 4.93, 167.75 12.7 M167.75 12.7 C168.59 22.85, 169.67 29.6, 167.75 38.11 M167.75 12.7 C166.97 18.19, 167.61 25.55, 167.75 38.11 M167.75 38.11 C167.38 47.43, 162.68 50.59, 155.04 50.82 M167.75 38.11 C168.99 46.68, 163.73 50.83, 155.04 50.82 M155.04 50.82 C112.89 50.96, 71.07 52.29, 12.7 50.82 M155.04 50.82 C116.95 51.18, 78.36 51.4, 12.7 50.82 M12.7 50.82 C6.02 51.01, -1.44 48.47, 0 38.11 M12.7 50.82 C2.06 50.43, 2.26 48.58, 0 38.11 M0 38.11 C2.22 29.4, -1.47 17.37, 0 12.7 M0 38.11 C-0.15 27.8, 0.78 19.65, 0 12.7 M0 12.7 C1.56 2.3, 4.87 -0.6, 12.7 0 M0 12.7 C2.25 1.96, 3.82 0.28, 12.7 0" stroke="#1e1e1e" stroke-width="2" fill="none"></path></g><g transform="translate(402.66196274051447 409.5407965781037) rotate(0 24.189926147460938 13.113761469965851)"><text x="0" y="18.380248076304145" font-family="Virgil, Segoe UI Emoji" font-size="20.98201835194537px" fill="#1e1e1e" text-anchor="start" style="white-space: pre;" direction="ltr" dominant-baseline="alphabetic">Cart</text></g><g stroke-linecap="round" transform="translate(159.0922708880526 398.605720092669) rotate(0 83.87343273498993 25.407912848058828)"><path d="M1.51 5.28 C1.51 5.28, 1.51 5.28, 1.51 5.28 M1.51 5.28 C1.51 5.28, 1.51 5.28, 1.51 5.28 M0.33 18.83 C5.14 11.65, 9.24 5.73, 16.73 -0.03 M0.33 18.83 C6 12.87, 12.34 5.25, 16.73 -0.03 M0.46 30.88 C7.92 23.55, 10.76 18.63, 27.36 -0.07 M0.46 30.88 C10.15 18.28, 19.69 7.65, 27.36 -0.07 M1.25 42.16 C7.4 34.52, 15.35 23.69, 37.99 -0.1 M1.25 42.16 C13 28.18, 24.92 14.06, 37.99 -0.1 M5.98 48.92 C20.05 32.51, 30.81 21.06, 48.62 -0.14 M5.98 48.92 C20.35 31.25, 35.01 15.28, 48.62 -0.14 M15.29 50.39 C31.38 34.32, 46.8 13.6, 58.59 0.58 M15.29 50.39 C30.46 34.63, 44.22 17.55, 58.59 0.58 M25.92 50.36 C32.8 38.8, 43.83 27.88, 69.22 0.55 M25.92 50.36 C34.2 40.06, 44.7 29.4, 69.22 0.55 M36.55 50.33 C52.57 29.85, 69.84 9.9, 79.85 0.51 M36.55 50.33 C51.12 35.55, 65.04 18.48, 79.85 0.51 M47.18 50.29 C65.42 30.47, 80.16 9.08, 90.48 0.48 M47.18 50.29 C59.74 34.96, 74.24 19.97, 90.48 0.48 M57.81 50.26 C69.16 34.58, 84.31 20.78, 101.11 0.45 M57.81 50.26 C68.05 38.88, 79.31 25.74, 101.11 0.45 M67.79 50.98 C77.75 41.21, 85.7 28.99, 111.74 0.41 M67.79 50.98 C83.69 33.27, 98.85 15.05, 111.74 0.41 M78.42 50.94 C95.27 32.73, 111.21 9.7, 122.37 0.38 M78.42 50.94 C88.16 39.6, 97.28 27.96, 122.37 0.38 M89.05 50.91 C104.23 34.21, 117.71 20.45, 133 0.34 M89.05 50.91 C107.33 30.84, 124.19 11.82, 133 0.34 M99.68 50.87 C111.44 37.31, 123.36 25.02, 142.98 1.06 M99.68 50.87 C115.46 34.29, 129.44 16.47, 142.98 1.06 M110.31 50.84 C125.06 33.52, 137.39 16.99, 153.61 1.03 M110.31 50.84 C124.17 35.73, 135.96 20.54, 153.61 1.03 M120.94 50.8 C130.32 39.5, 138.65 31.05, 162.93 2.5 M120.94 50.8 C130.86 39.5, 142.24 26.26, 162.93 2.5 M131.57 50.77 C143.19 38.4, 153.08 25.34, 167.65 9.26 M131.57 50.77 C142.22 38.94, 151.76 27.48, 167.65 9.26 M142.2 50.74 C148.82 42.36, 158 31.47, 167.78 21.3 M142.2 50.74 C152.33 38.52, 161.49 28.66, 167.78 21.3 M152.83 50.7 C157.45 47.83, 162.88 41.56, 167.92 33.34 M152.83 50.7 C157.78 45.75, 162.73 39.16, 167.92 33.34" stroke="#b2f2bb" stroke-width="1" fill="none"></path><path d="M12.7 0 C63.39 0.94, 118.85 -1.42, 155.04 0 M12.7 0 C57.46 -0.32, 102.55 -0.46, 155.04 0 M155.04 0 C163.66 1.66, 165.75 3.15, 167.75 12.7 M155.04 0 C165.55 1.9, 167.1 2.32, 167.75 12.7 M167.75 12.7 C168.73 19.3, 167.45 25.64, 167.75 38.11 M167.75 12.7 C167.9 20.26, 167.5 26.63, 167.75 38.11 M167.75 38.11 C169.58 45.77, 161.83 50.39, 155.04 50.82 M167.75 38.11 C168.32 47.02, 162.92 50, 155.04 50.82 M155.04 50.82 C114.86 51.77, 75.93 50.23, 12.7 50.82 M155.04 50.82 C111.38 52.83, 67.85 52.53, 12.7 50.82 M12.7 50.82 C2.34 50.52, -0.03 48.37, 0 38.11 M12.7 50.82 C2.15 52.92, -1.04 47.23, 0 38.11 M0 38.11 C-1.03 32.31, 0.13 26.27, 0 12.7 M0 38.11 C-0.68 29.02, -0.26 21.18, 0 12.7 M0 12.7 C1.71 2.38, 2.39 -0.12, 12.7 0 M0 12.7 C2.13 4.55, 2.53 1.18, 12.7 0" stroke="#1e1e1e" stroke-width="2" fill="none"></path></g><g transform="translate(200.41854695202807 413.3210473405053) rotate(0 46.072044372558594 13.113761469965851)"><text x="0" y="18.380248076304145" font-family="Virgil, Segoe UI Emoji" font-size="20.98201835194537px" fill="#1e1e1e" text-anchor="start" style="white-space: pre;" direction="ltr" dominant-baseline="alphabetic">Products</text></g><g stroke-linecap="round"><g transform="translate(376.3752664873108 220.81081667627754) rotate(0 -0.94506269060048 35.4398508975151)"><path d="M0 0 C-0.61 22.92, -1.22 45.83, -1.89 70.88 M0 0 C-0.4 15.14, -0.81 30.27, -1.89 70.88" stroke="#1971c2" stroke-width="2" fill="none"></path></g><g transform="translate(376.3752664873108 220.81081667627754) rotate(0 -0.94506269060048 35.4398508975151)"><path d="M-9.81 47.17 C-7.25 54.83, -4.69 62.5, -1.89 70.88 M-9.81 47.17 C-8.12 52.23, -6.43 57.29, -1.89 70.88" stroke="#1971c2" stroke-width="2" fill="none"></path></g><g transform="translate(376.3752664873108 220.81081667627754) rotate(0 -0.94506269060048 35.4398508975151)"><path d="M7.28 47.62 C4.32 55.14, 1.35 62.66, -1.89 70.88 M7.28 47.62 C5.32 52.59, 3.37 57.56, -1.89 70.88" stroke="#1971c2" stroke-width="2" fill="none"></path></g></g><mask></mask><g stroke-linecap="round"><g transform="translate(311.1659408358829 363.51528295693834) rotate(0 -17.011128430807275 12.758346323105457)"><path d="M0 0 C-9.26 6.94, -18.52 13.89, -34.02 25.52 M0 0 C-7.61 5.71, -15.23 11.42, -34.02 25.52" stroke="#1971c2" stroke-width="2" fill="none"></path></g><g transform="translate(311.1659408358829 363.51528295693834) rotate(0 -17.011128430807275 12.758346323105457)"><path d="M-22.4 7.71 C-25.56 12.56, -28.73 17.4, -34.02 25.52 M-22.4 7.71 C-25 11.7, -27.6 15.68, -34.02 25.52" stroke="#1971c2" stroke-width="2" fill="none"></path></g><g transform="translate(311.1659408358829 363.51528295693834) rotate(0 -17.011128430807275 12.758346323105457)"><path d="M-13.67 19.35 C-19.21 21.03, -24.75 22.7, -34.02 25.52 M-13.67 19.35 C-18.23 20.73, -22.78 22.11, -34.02 25.52" stroke="#1971c2" stroke-width="2" fill="none"></path></g></g><mask></mask><g stroke-linecap="round"><g transform="translate(412.2876487301261 359.73503219453676) rotate(0 1.8901253812007326 19.846316502608488)"><path d="M0 0 C1.07 11.26, 2.14 22.52, 3.78 39.69 M0 0 C1.4 14.71, 2.8 29.41, 3.78 39.69" stroke="#1971c2" stroke-width="2" fill="none"></path></g><g transform="translate(412.2876487301261 359.73503219453676) rotate(0 1.8901253812007326 19.846316502608488)"><path d="M-4.78 21.69 C-2.35 26.8, 0.08 31.9, 3.78 39.69 M-4.78 21.69 C-1.61 28.36, 1.56 35.03, 3.78 39.69" stroke="#1971c2" stroke-width="2" fill="none"></path></g><g transform="translate(412.2876487301261 359.73503219453676) rotate(0 1.8901253812007326 19.846316502608488)"><path d="M8.79 20.4 C7.37 25.87, 5.95 31.34, 3.78 39.69 M8.79 20.4 C6.94 27.55, 5.08 34.7, 3.78 39.69" stroke="#1971c2" stroke-width="2" fill="none"></path></g></g><mask></mask><g stroke-linecap="round"><g transform="translate(455.35704141271594 289.8685733642229) rotate(0 35.49983094330787 -20.89522062645534)"><path d="M0 0 C19.4 -11.42, 38.8 -22.84, 71 -41.79 M0 0 C19.42 -11.43, 38.83 -22.86, 71 -41.79" stroke="#1971c2" stroke-width="2" fill="none"></path></g><g transform="translate(455.35704141271594 289.8685733642229) rotate(0 35.49983094330787 -20.89522062645534)"><path d="M55.09 -22.51 C59.44 -27.78, 63.79 -33.05, 71 -41.79 M55.09 -22.51 C59.44 -27.78, 63.79 -33.05, 71 -41.79" stroke="#1971c2" stroke-width="2" fill="none"></path></g><g transform="translate(455.35704141271594 289.8685733642229) rotate(0 35.49983094330787 -20.89522062645534)"><path d="M46.42 -37.24 C53.13 -38.49, 59.85 -39.73, 71 -41.79 M46.42 -37.24 C53.14 -38.49, 59.86 -39.73, 71 -41.79" stroke="#1971c2" stroke-width="2" fill="none"></path></g></g><mask></mask><g stroke-linecap="round"><g transform="translate(619.0171414960661 255.77813622849234) rotate(0 8.106867138345137 32.60466282571389)"><path d="M0 0 C4.69 18.86, 9.38 37.72, 16.21 65.21 M0 0 C3.29 13.24, 6.58 26.48, 16.21 65.21" stroke="#1971c2" stroke-width="2" fill="none"></path></g><g transform="translate(619.0171414960661 255.77813622849234) rotate(0 8.106867138345137 32.60466282571389)"><path d="M2.25 44.47 C6.29 50.47, 10.33 56.47, 16.21 65.21 M2.25 44.47 C5.08 48.68, 7.92 52.89, 16.21 65.21" stroke="#1971c2" stroke-width="2" fill="none"></path></g><g transform="translate(619.0171414960661 255.77813622849234) rotate(0 8.106867138345137 32.60466282571389)"><path d="M18.84 40.35 C18.08 47.54, 17.32 54.73, 16.21 65.21 M18.84 40.35 C18.31 45.4, 17.78 50.44, 16.21 65.21" stroke="#1971c2" stroke-width="2" fill="none"></path></g></g><mask></mask><g stroke-linecap="round" transform="translate(243.1214271126538 500.5493730939968) rotate(0 78.44020331983347 40.63769569581734)"><path d="M-0.04 41.04 C-0.04 41.04, -0.04 41.04, -0.04 41.04 M-0.04 41.04 C-0.04 41.04, -0.04 41.04, -0.04 41.04 M7.31 44.78 C10.16 41.5, 13.02 38.22, 19.12 31.2 M7.31 44.78 C10.69 40.89, 14.08 37, 19.12 31.2 M14.66 48.52 C22.14 39.92, 29.61 31.32, 38.94 20.6 M14.66 48.52 C20.84 41.41, 27.02 34.3, 38.94 20.6 M22.01 52.26 C31.39 41.47, 40.76 30.69, 58.1 10.75 M22.01 52.26 C34.87 37.47, 47.73 22.67, 58.1 10.75 M29.36 56 C46.81 35.93, 64.25 15.86, 77.25 0.91 M29.36 56 C43.56 39.66, 57.77 23.32, 77.25 0.91 M36.71 59.74 C49.71 44.78, 62.71 29.83, 85.26 3.89 M36.71 59.74 C55.09 38.59, 73.48 17.44, 85.26 3.89 M44.06 63.48 C63.01 41.68, 81.95 19.89, 92.61 7.63 M44.06 63.48 C54.31 51.69, 64.56 39.9, 92.61 7.63 M51.41 67.22 C66.87 49.43, 82.33 31.65, 99.96 11.37 M51.41 67.22 C61.77 55.3, 72.13 43.38, 99.96 11.37 M58.76 70.96 C78.18 48.62, 97.59 26.29, 107.31 15.11 M58.76 70.96 C74.42 52.94, 90.08 34.93, 107.31 15.11 M66.11 74.69 C82.46 55.89, 98.81 37.08, 114.66 18.85 M66.11 74.69 C80.62 58, 95.14 41.3, 114.66 18.85 M73.46 78.43 C91.87 57.26, 110.28 36.08, 122.01 22.58 M73.46 78.43 C84.78 65.41, 96.1 52.39, 122.01 22.58 M82.12 80.66 C97.22 63.3, 112.31 45.94, 129.36 26.32 M82.12 80.66 C94.02 66.98, 105.91 53.3, 129.36 26.32 M101.28 70.82 C111.41 59.17, 121.53 47.52, 136.71 30.06 M101.28 70.82 C109.21 61.7, 117.13 52.59, 136.71 30.06 M120.44 60.97 C128.36 51.86, 136.29 42.74, 144.06 33.8 M120.44 60.97 C126.73 53.73, 133.03 46.49, 144.06 33.8 M139.6 51.13 C142.38 47.93, 145.16 44.73, 150.75 38.3 M139.6 51.13 C142.42 47.89, 145.23 44.64, 150.75 38.3" stroke="#a5d8ff" stroke-width="1" fill="none"></path><path d="M79 0 C109.77 16.2, 140.54 32.4, 156.88 41 M79 0 C101.88 12.04, 124.76 24.09, 156.88 41 M156.88 41 C131.89 53.92, 106.91 66.84, 79 81.28 M156.88 41 C137.17 51.19, 117.46 61.39, 79 81.28 M79 81.28 C54.69 68.88, 30.38 56.49, 0 41 M79 81.28 C56.71 69.91, 34.41 58.54, 0 41 M0 41 C18.3 31.5, 36.59 22.01, 79 0 M0 41 C22.64 29.25, 45.29 17.5, 79 0" stroke="#1971c2" stroke-width="2" fill="none"></path></g><g transform="translate(282.639001034263 523.8933821407526) rotate(0 41.58233642578125 13.11376146996588)"><text x="0" y="18.380248076304145" font-family="Virgil, Segoe UI Emoji" font-size="20.98201835194537px" fill="#1e1e1e" text-anchor="start" style="white-space: pre;" direction="ltr" dominant-baseline="alphabetic">useCart</text></g><g stroke-linecap="round" transform="translate(558.7723657731884 425.8894205365648) rotate(0 78.44020331983347 40.63769569581734)"><path d="M-0.04 41.04 C-0.04 41.04, -0.04 41.04, -0.04 41.04 M-0.04 41.04 C-0.04 41.04, -0.04 41.04, -0.04 41.04 M7.31 44.78 C11.12 40.41, 14.92 36.03, 19.12 31.2 M7.31 44.78 C11.55 39.91, 15.79 35.03, 19.12 31.2 M14.66 48.52 C20.34 41.99, 26.02 35.45, 38.94 20.6 M14.66 48.52 C20.71 41.57, 26.75 34.61, 38.94 20.6 M22.01 52.26 C30.04 43.03, 38.06 33.8, 58.1 10.75 M22.01 52.26 C33.83 38.66, 45.65 25.07, 58.1 10.75 M29.36 56 C43.96 39.2, 58.56 22.41, 77.25 0.91 M29.36 56 C48.01 34.55, 66.66 13.1, 77.25 0.91 M36.71 59.74 C53.58 40.34, 70.44 20.94, 85.26 3.89 M36.71 59.74 C49.3 45.26, 61.88 30.78, 85.26 3.89 M44.06 63.48 C56.58 49.08, 69.09 34.68, 92.61 7.63 M44.06 63.48 C58.53 46.83, 73.01 30.18, 92.61 7.63 M51.41 67.22 C69.85 46, 88.29 24.79, 99.96 11.37 M51.41 67.22 C66.43 49.94, 81.45 32.66, 99.96 11.37 M58.76 70.96 C72.67 54.95, 86.58 38.95, 107.31 15.11 M58.76 70.96 C70.65 57.28, 82.54 43.6, 107.31 15.11 M66.11 74.69 C84.28 53.79, 102.46 32.88, 114.66 18.85 M66.11 74.69 C81.24 57.29, 96.36 39.89, 114.66 18.85 M73.46 78.43 C85.92 64.1, 98.37 49.78, 122.01 22.58 M73.46 78.43 C86.93 62.94, 100.39 47.45, 122.01 22.58 M82.12 80.66 C99 61.24, 115.89 41.82, 129.36 26.32 M82.12 80.66 C99.96 60.14, 117.8 39.62, 129.36 26.32 M101.28 70.82 C112.1 58.37, 122.92 45.92, 136.71 30.06 M101.28 70.82 C109.13 61.79, 116.97 52.77, 136.71 30.06 M120.44 60.97 C128.17 52.08, 135.91 43.18, 144.06 33.8 M120.44 60.97 C127.47 52.89, 134.49 44.8, 144.06 33.8 M139.6 51.13 C142.3 48.02, 145 44.91, 150.75 38.3 M139.6 51.13 C142.73 47.52, 145.87 43.92, 150.75 38.3" stroke="#a5d8ff" stroke-width="1" fill="none"></path><path d="M79 0 C98.85 10.45, 118.69 20.9, 156.88 41 M79 0 C95.73 8.81, 112.46 17.61, 156.88 41 M156.88 41 C131.67 54.04, 106.47 67.07, 79 81.28 M156.88 41 C135.16 52.23, 113.45 63.46, 79 81.28 M79 81.28 C53.48 68.27, 27.97 55.26, 0 41 M79 81.28 C56.4 69.75, 33.81 58.23, 0 41 M0 41 C26.5 27.25, 53 13.49, 79 0 M0 41 C21.78 29.7, 43.56 18.39, 79 0" stroke="#1971c2" stroke-width="2" fill="none"></path></g><g transform="translate(588.8393127887936 451.1235549645213) rotate(0 50.34148406982422 13.113761469965851)"><text x="0" y="18.380248076304145" font-family="Virgil, Segoe UI Emoji" font-size="20.98201835194537px" fill="#1e1e1e" text-anchor="start" style="white-space: pre;" direction="ltr" dominant-baseline="alphabetic">useFilters</text></g><g stroke-linecap="round"><g transform="translate(232.72573751604943 458.0215520169787) rotate(0 22.578500232321858 31.36991882416092)"><path d="M0 0 C6.01 9.35, 12.02 18.7, 17.01 26.46 M17.01 26.46 C26.44 38.61, 35.86 50.76, 45.16 62.74" stroke="#1971c2" stroke-width="2.5" fill="none" stroke-dasharray="1.5 8"></path></g><g transform="translate(232.72573751604943 458.0215520169787) rotate(0 22.578500232321858 31.36991882416092)"><path d="M25.73 50.51 C32.59 54.83, 39.46 59.15, 45.16 62.74" stroke="#1971c2" stroke-width="2.5" fill="none" stroke-dasharray="1.5 6"></path></g><g transform="translate(232.72573751604943 458.0215520169787) rotate(0 22.578500232321858 31.36991882416092)"><path d="M38.14 40.88 C40.62 48.6, 43.1 56.33, 45.16 62.74" stroke="#1971c2" stroke-width="2.5" fill="none" stroke-dasharray="1.5 6"></path></g></g><mask></mask><g stroke-linecap="round"><g transform="translate(389.6061441557164 453.29623856397666) rotate(0 -31.18706878981334 24.57162995561052)"><path d="M0 0 C-20.5 16.15, -40.99 32.3, -62.37 49.14" stroke="#1971c2" stroke-width="2.5" fill="none" stroke-dasharray="1.5 8"></path></g><g transform="translate(389.6061441557164 453.29623856397666) rotate(0 -31.18706878981334 24.57162995561052)"><path d="M-49.21 27.89 C-53.54 34.87, -57.86 41.86, -62.37 49.14" stroke="#1971c2" stroke-width="2.5" fill="none" stroke-dasharray="1.5 6"></path></g><g transform="translate(389.6061441557164 453.29623856397666) rotate(0 -31.18706878981334 24.57162995561052)"><path d="M-38.63 41.32 C-46.43 43.89, -54.23 46.46, -62.37 49.14" stroke="#1971c2" stroke-width="2.5" fill="none" stroke-dasharray="1.5 6"></path></g></g><mask></mask><g stroke-linecap="round"><g transform="translate(240.79566331349258 545.6866900503788) rotate(0 -27.75050634926987 10.508535692823045)"><path d="M0 0 C-15.74 5.96, -31.48 11.92, -55.5 21.02" stroke="#1971c2" stroke-width="2.5" fill="none" stroke-dasharray="1.5 8"></path></g><g transform="translate(240.79566331349258 545.6866900503788) rotate(0 -27.75050634926987 10.508535692823045)"><path d="M-36.56 4.7 C-41.93 9.33, -47.3 13.96, -55.5 21.02" stroke="#1971c2" stroke-width="2.5" fill="none" stroke-dasharray="1.5 6"></path></g><g transform="translate(240.79566331349258 545.6866900503788) rotate(0 -27.75050634926987 10.508535692823045)"><path d="M-30.5 20.69 C-37.59 20.79, -44.68 20.88, -55.5 21.02" stroke="#1971c2" stroke-width="2.5" fill="none" stroke-dasharray="1.5 6"></path></g></g><mask></mask><g stroke-linecap="round" transform="translate(37.097760561765995 440.06536089557096) rotate(0 65.20932565142783 42.5278210770181)"><path d="M8.94 21.03 C8.94 21.03, 8.94 21.03, 8.94 21.03 M8.94 21.03 C8.94 21.03, 8.94 21.03, 8.94 21.03 M0.55 42.88 C11.56 30.21, 22.56 17.55, 32.7 5.9 M0.55 42.88 C8.47 33.76, 16.4 24.64, 32.7 5.9 M2.65 52.65 C15.94 37.36, 29.24 22.07, 46.61 2.09 M2.65 52.65 C17.69 35.35, 32.74 18.04, 46.61 2.09 M6.06 60.92 C26.63 37.27, 47.19 13.61, 58.55 0.54 M6.06 60.92 C17.47 47.8, 28.88 34.68, 58.55 0.54 M11.44 66.92 C33.8 41.21, 56.15 15.5, 69.18 0.51 M11.44 66.92 C26.69 49.39, 41.93 31.86, 69.18 0.51 M18.14 71.42 C36.5 50.3, 54.86 29.18, 79.15 1.23 M18.14 71.42 C37.46 49.19, 56.79 26.95, 79.15 1.23 M24.83 75.91 C48.45 48.74, 72.06 21.58, 87.81 3.46 M24.83 75.91 C47.43 49.91, 70.04 23.91, 87.81 3.46 M32.18 79.65 C49.83 59.35, 67.47 39.05, 96.48 5.69 M32.18 79.65 C46.87 62.76, 61.55 45.86, 96.48 5.69 M40.84 81.88 C58.76 61.27, 76.67 40.67, 104.48 8.67 M40.84 81.88 C61.5 58.12, 82.16 34.35, 104.48 8.67 M49.51 84.11 C67.51 63.4, 85.52 42.68, 111.83 12.41 M49.51 84.11 C69.08 61.59, 88.66 39.07, 111.83 12.41 M59.48 84.83 C82.49 58.36, 105.5 31.89, 117.87 17.66 M59.48 84.83 C73.32 68.91, 87.17 52.98, 117.87 17.66 M69.45 85.55 C85.2 67.44, 100.95 49.32, 123.25 23.66 M69.45 85.55 C80.95 72.32, 92.45 59.1, 123.25 23.66 M81.4 84.01 C94.08 69.42, 106.76 54.83, 127.98 30.42 M81.4 84.01 C97.71 65.24, 114.02 46.47, 127.98 30.42 M94.65 80.95 C101.95 72.56, 109.25 64.16, 130.08 40.2 M94.65 80.95 C103.34 70.96, 112.03 60.96, 130.08 40.2 M111.84 73.37 C117.76 66.56, 123.68 59.75, 128.9 53.75 M111.84 73.37 C116.89 67.56, 121.94 61.75, 128.9 53.75" stroke="#ffc9c9" stroke-width="1" fill="none"></path><path d="M130.42 42.53 C130.42 44.38, 130.23 46.24, 129.86 48.08 C129.49 49.91, 128.93 51.75, 128.2 53.53 C127.46 55.32, 126.54 57.09, 125.45 58.8 C124.37 60.51, 123.1 62.19, 121.68 63.79 C120.26 65.39, 118.67 66.95, 116.94 68.42 C115.22 69.89, 113.33 71.29, 111.32 72.6 C109.31 73.91, 107.16 75.14, 104.91 76.27 C102.66 77.39, 100.27 78.43, 97.81 79.36 C95.36 80.28, 92.79 81.11, 90.16 81.82 C87.54 82.53, 84.83 83.13, 82.09 83.61 C79.35 84.09, 76.53 84.45, 73.72 84.69 C70.91 84.93, 68.05 85.06, 65.21 85.06 C62.37 85.06, 59.51 84.93, 56.7 84.69 C53.88 84.45, 51.07 84.09, 48.33 83.61 C45.59 83.13, 42.88 82.53, 40.25 81.82 C37.63 81.11, 35.06 80.28, 32.6 79.36 C30.15 78.43, 27.76 77.39, 25.51 76.27 C23.26 75.14, 21.11 73.91, 19.1 72.6 C17.09 71.29, 15.2 69.89, 13.48 68.42 C11.75 66.95, 10.15 65.39, 8.74 63.79 C7.32 62.19, 6.05 60.51, 4.96 58.8 C3.88 57.09, 2.96 55.32, 2.22 53.53 C1.49 51.75, 0.93 49.91, 0.56 48.08 C0.19 46.24, 0 44.38, 0 42.53 C0 40.68, 0.19 38.81, 0.56 36.98 C0.93 35.14, 1.49 33.31, 2.22 31.52 C2.96 29.73, 3.88 27.96, 4.96 26.25 C6.05 24.54, 7.32 22.87, 8.74 21.26 C10.15 19.66, 11.75 18.11, 13.48 16.64 C15.2 15.17, 17.09 13.76, 19.1 12.46 C21.11 11.15, 23.26 9.91, 25.51 8.79 C27.76 7.66, 30.15 6.62, 32.6 5.7 C35.06 4.77, 37.63 3.95, 40.25 3.24 C42.88 2.53, 45.59 1.93, 48.33 1.45 C51.07 0.97, 53.88 0.61, 56.7 0.36 C59.51 0.12, 62.37 0, 65.21 0 C68.05 0, 70.91 0.12, 73.72 0.36 C76.53 0.61, 79.35 0.97, 82.09 1.45 C84.83 1.93, 87.54 2.53, 90.16 3.24 C92.79 3.95, 95.36 4.77, 97.81 5.7 C100.27 6.62, 102.66 7.66, 104.91 8.79 C107.16 9.91, 109.31 11.15, 111.32 12.46 C113.33 13.76, 115.22 15.17, 116.94 16.64 C118.67 18.11, 120.26 19.66, 121.68 21.26 C123.1 22.87, 124.37 24.54, 125.45 26.25 C126.54 27.96, 127.46 29.73, 128.2 31.52 C128.93 33.31, 129.49 35.14, 129.86 36.98 C130.23 38.81, 130.33 41.6, 130.42 42.53 C130.51 43.45, 130.51 41.6, 130.42 42.53" stroke="#1971c2" stroke-width="2.5" fill="none" stroke-dasharray="1.5 8"></path></g><g transform="translate(65.27458219617023 454.903805726923) rotate(0 40.29206085205078 26.227522939931703)"><text x="0" y="18.380248076304145" font-family="Virgil, Segoe UI Emoji" font-size="20.98201835194537px" fill="#1e1e1e" text-anchor="start" style="white-space: pre;" direction="ltr" dominant-baseline="alphabetic">cart</text><text x="0" y="44.60777101623586" font-family="Virgil, Segoe UI Emoji" font-size="20.98201835194537px" fill="#1e1e1e" text-anchor="start" style="white-space: pre;" direction="ltr" dominant-baseline="alphabetic">Reducer</text></g><g stroke-linecap="round"><g transform="translate(98.11430256595378 529.8296032102012) rotate(0 0.11489248578172351 17.492016422311508)"><path d="M0 0 C0.09 13.16, 0.17 26.32, 0.23 34.98" stroke="#1971c2" stroke-width="2.5" fill="none" stroke-dasharray="1.5 8"></path></g><g transform="translate(98.11430256595378 529.8296032102012) rotate(0 0.11489248578172351 17.492016422311508)"><path d="M-5.86 18.59 C-3.57 24.75, -1.28 30.92, 0.23 34.98" stroke="#1971c2" stroke-width="2.5" fill="none" stroke-dasharray="1.5 6"></path></g><g transform="translate(98.11430256595378 529.8296032102012) rotate(0 0.11489248578172351 17.492016422311508)"><path d="M6.1 18.51 C3.89 24.71, 1.68 30.9, 0.23 34.98" stroke="#1971c2" stroke-width="2.5" fill="none" stroke-dasharray="1.5 6"></path></g></g><mask></mask><g stroke-linecap="round" transform="translate(537.344981355025 289.97915282765894) rotate(0 101.98478868379186 157.15854286815846)"><path d="M32 0 C69.95 0.28, 107.57 -1.29, 171.97 0 M171.97 0 C192.97 -1.72, 203.58 10.46, 203.97 32 M203.97 32 C205.31 112.26, 204.92 193.1, 203.97 282.32 M203.97 282.32 C204.05 301.97, 191.48 315.4, 171.97 314.32 M171.97 314.32 C136.99 315.15, 107.28 312.72, 32 314.32 M32 314.32 C11.81 313.82, 0.21 302.37, 0 282.32 M0 282.32 C-1.28 195.94, -1.22 112.05, 0 32 M0 32 C-0.21 12.02, 9.82 -1.65, 32 0" stroke="#e03131" stroke-width="2.5" fill="none" stroke-dasharray="8 10"></path></g><g transform="translate(560.533601402584 554.845174539654) rotate(0 74.78329448607576 13.437197119718348)"><text x="0" y="18.833575482997226" font-family="Virgil, Segoe UI Emoji" font-size="21.499515391549345px" fill="#e03131" text-anchor="start" style="white-space: pre;" direction="ltr" dominant-baseline="alphabetic">filtersContext</text></g><g stroke-linecap="round"><g transform="translate(636.2675064024218 381.4714740783461) rotate(0 0.47253134530024 24.09909861031028)"><path d="M0 0 C0.32 16.22, 0.64 32.44, 0.95 48.2" stroke="#e03131" stroke-width="2.5" fill="none" stroke-dasharray="1.5 8"></path></g><g transform="translate(636.2675064024218 381.4714740783461) rotate(0 0.47253134530024 24.09909861031028)"><path d="M-7.74 25.71 C-4.82 33.28, -1.9 40.85, 0.95 48.2" stroke="#e03131" stroke-width="2.5" fill="none" stroke-dasharray="1.5 6"></path></g><g transform="translate(636.2675064024218 381.4714740783461) rotate(0 0.47253134530024 24.09909861031028)"><path d="M8.74 25.39 C6.12 33.07, 3.5 40.74, 0.95 48.2" stroke="#e03131" stroke-width="2.5" fill="none" stroke-dasharray="1.5 6"></path></g></g><mask></mask><g stroke-linecap="round"><g transform="translate(639.102694474223 510.9450626906014) rotate(0 0.9450626906003663 20.318847847908614)"><path d="M0 0 C0.65 14.07, 1.31 28.13, 1.89 40.64" stroke="#e03131" stroke-width="2.5" fill="none" stroke-dasharray="1.5 8"></path></g><g transform="translate(639.102694474223 510.9450626906014) rotate(0 0.9450626906003663 20.318847847908614)"><path d="M-5.95 21.87 C-3.23 28.36, -0.52 34.86, 1.89 40.64" stroke="#e03131" stroke-width="2.5" fill="none" stroke-dasharray="1.5 6"></path></g><g transform="translate(639.102694474223 510.9450626906014) rotate(0 0.9450626906003663 20.318847847908614)"><path d="M7.95 21.22 C5.85 27.94, 3.76 34.66, 1.89 40.64" stroke="#e03131" stroke-width="2.5" fill="none" stroke-dasharray="1.5 6"></path></g></g><mask></mask></svg>