<svg width="10" height="15" viewBox="0 0 10 15" fill="none" xmlns="http://www.w3.org/2000/svg">
<path fill-rule="evenodd" clip-rule="evenodd" d="M0.3125 5.62598C0.3125 4.38277 0.80636 3.19049 1.68544 2.31141C2.56451 1.43234 3.7568 0.938477 5 0.938477C6.2432 0.938477 7.43549 1.43234 8.31456 2.31141C9.19364 3.19049 9.6875 4.38277 9.6875 5.62598C9.6875 6.3791 9.44687 7.23598 9.10375 8.08098C8.75688 8.93348 8.29 9.81035 7.80375 10.6154C7.36001 11.349 6.87875 12.0594 6.36188 12.7435C5.93187 13.3091 5.53938 13.7635 5.2925 13.9604C5.20944 14.0267 5.1063 14.0628 5 14.0628C4.8937 14.0628 4.79056 14.0267 4.7075 13.9604C4.46062 13.7635 4.06813 13.3091 3.63812 12.7435C3.12146 12.0593 2.64041 11.349 2.19687 10.6154C1.70937 9.81035 1.24312 8.93348 0.896875 8.08035C0.553125 7.23598 0.3125 6.3791 0.3125 5.62598ZM5 7.6566C5.53872 7.6566 6.05538 7.4426 6.43631 7.06166C6.81724 6.68073 7.03125 6.16407 7.03125 5.62535C7.03125 5.08663 6.81724 4.56997 6.43631 4.18904C6.05538 3.80811 5.53872 3.5941 5 3.5941C4.46128 3.5941 3.94462 3.80811 3.56369 4.18904C3.18276 4.56997 2.96875 5.08663 2.96875 5.62535C2.96875 6.16407 3.18276 6.68073 3.56369 7.06166C3.94462 7.4426 4.46128 7.6566 5 7.6566Z" fill="white"/>
</svg>
