<svg width="50" height="34" viewBox="0 0 50 34" fill="none" xmlns="http://www.w3.org/2000/svg">
<path d="M13.2998 0.727742C11.1978 3.06774 10.2998 4.45974 9.81781 6.11674C9.37781 7.62874 9.61081 8.87674 10.4888 9.74274C11.1858 10.4327 11.9258 10.6897 13.2058 10.6897C14.2468 10.6897 15.1378 10.5197 16.4428 10.0747C17.1578 9.83674 40.2378 0.262742 40.3948 0.144742C40.398 0.141927 40.4006 0.138464 40.4023 0.134585C40.4041 0.130706 40.405 0.126498 40.405 0.122242C40.405 0.117986 40.4041 0.113778 40.4023 0.109899C40.4006 0.106019 40.398 0.102557 40.3948 0.0997419C40.3828 0.0877419 35.3198 1.39974 29.1408 3.01774C22.9668 4.62974 17.6728 6.00374 17.3778 6.06574C16.5618 6.23574 15.2258 6.22274 14.6478 6.04074C14.2839 5.92758 13.9504 5.73334 13.6724 5.47266C13.3944 5.21198 13.1791 4.89164 13.0428 4.53574C12.9168 4.22774 12.8978 4.05874 12.8978 3.44974C12.9048 2.55274 13.0678 1.95074 13.6198 0.821742C13.8268 0.401742 13.9898 0.0377419 13.9768 0.0247419C13.9588 0.0127419 13.6568 0.331742 13.2998 0.727742ZM3.78981 16.7127C1.60581 17.2077 0.119809 19.1467 0.0188087 21.6427C-0.0311913 22.8357 0.200809 23.7257 0.783809 24.6297C1.09181 25.0877 2.06981 26.0657 2.72881 26.5677C3.87681 27.4397 4.19081 27.8607 4.12781 28.4437C4.08381 28.8077 3.89581 29.0647 3.52581 29.2407C2.62881 29.6857 1.34281 29.1337 0.294809 27.8537L0.0628087 27.5717V32.7847L0.482809 32.9167C1.33581 33.1867 1.61281 33.2177 3.10481 33.2177C4.44181 33.2177 4.57981 33.2057 5.01881 33.0737C6.34281 32.6597 7.42181 31.7567 8.02381 30.5707C8.13681 30.3507 8.28081 30.0307 8.34381 29.8487L8.46281 29.5167V31.3167L8.46881 33.1237H12.7348L12.7478 29.2097L12.7668 25.2947L14.2718 29.1907L15.7838 33.0927L17.6158 33.1117L19.4478 33.1237V16.7497H15.1818L15.1688 20.3007L15.1508 23.8457L14.1468 20.3007L13.1428 16.7507H8.46881V21.5617C8.46281 26.3617 8.46281 26.3797 8.34381 26.0537C8.04281 25.2137 7.43981 24.4477 6.49381 23.7077C6.12281 23.4187 5.60881 23.0107 5.34481 22.8037C4.72381 22.3137 4.45481 21.9257 4.45481 21.5117C4.45481 21.2477 4.48481 21.1667 4.67981 20.9597C4.93681 20.6707 5.21981 20.5577 5.67081 20.5647C6.16681 20.5767 6.91281 20.9717 7.46481 21.5177L7.90481 21.9507V17.2647L7.50281 17.1017C6.65581 16.7687 6.17881 16.6747 5.14381 16.6497C4.46681 16.6367 4.05381 16.6557 3.78981 16.7127ZM45.0558 16.7437C44.8058 16.8067 44.3538 16.9757 44.0588 17.1267C43.1488 17.5777 42.2648 18.5447 41.8628 19.5227C41.7748 19.7427 41.6998 19.9307 41.6878 19.9367C41.6748 19.9497 41.5678 19.7547 41.4488 19.4977C40.7208 17.9357 39.2848 17.0697 37.0138 16.8187C36.5498 16.7627 34.9178 16.7497 31.4988 16.7627L26.6438 16.7817L25.5708 19.0647L24.4978 21.3427L24.4788 19.0457L24.4668 16.7497H20.0748V33.1237H24.4668V29.6857L24.4728 26.2547L25.7968 29.6857L27.1268 33.1237H35.4448L35.4648 30.8777C35.4708 29.6477 35.4708 28.1737 35.4648 27.6037C35.4578 27.0327 35.4768 26.6117 35.5018 26.6617C35.5268 26.7117 36.0658 28.1867 36.6998 29.9367L37.8478 33.1167L40.4888 33.1487C41.9388 33.1687 43.6828 33.1987 44.3658 33.2247C45.4708 33.2557 45.6518 33.2427 46.1538 33.1247C46.856 32.9584 47.5131 32.64 48.079 32.1922C48.6448 31.7444 49.1056 31.1779 49.4288 30.5327C49.8058 29.7797 49.9438 29.1717 49.9808 28.1677C50.0628 26.0157 49.4288 24.8487 47.3338 23.2747C45.8658 22.1767 45.5458 21.6367 45.9838 21.0157C46.4238 20.3957 47.4468 20.4327 48.3498 21.1037C48.7258 21.3797 49.4348 22.1077 49.4348 22.2137C49.4348 22.2457 49.4668 22.2707 49.4978 22.2707C49.5358 22.2707 49.5608 21.3927 49.5608 19.7677V17.2697L49.1968 17.1067C48.4818 16.7867 47.8728 16.6737 46.6438 16.6487C45.6958 16.6297 45.4388 16.6437 45.0558 16.7437ZM31.0408 27.7727L31.0228 31.1477L29.5358 27.5597C28.7138 25.5897 28.0428 23.9517 28.0428 23.9207C28.0428 23.8957 28.7128 22.4777 29.5288 20.7777L31.0228 17.6777L31.0408 21.0407C31.0478 22.8917 31.0478 25.9217 31.0408 27.7727ZM36.6438 20.5577C37.2518 20.9027 37.5718 21.5927 37.4968 22.4277C37.4088 23.5187 36.7188 24.2717 35.8088 24.2777H35.4448V20.3067L35.8778 20.3387C36.2108 20.3637 36.3928 20.4187 36.6438 20.5577ZM42.8418 25.4267C43.1368 25.7337 43.6638 26.2107 44.0088 26.4867C44.3538 26.7627 44.7678 27.0947 44.9368 27.2327C45.8908 28.0357 45.6398 29.1717 44.4598 29.3847C43.6888 29.5227 42.3208 28.7697 41.6938 27.8607C41.5938 27.7157 41.4868 27.6037 41.4618 27.6037C41.4298 27.6037 41.3988 28.2177 41.3918 28.9637L41.3738 30.3197L40.4138 28.3307C39.8808 27.2327 39.4598 26.3357 39.4728 26.3297C40.1248 26.0037 40.3068 25.8717 40.7208 25.4697C41.0978 25.0997 41.2548 24.8797 41.4678 24.4537L41.7378 23.9077L42.0198 24.3847C42.1768 24.6547 42.5348 25.1067 42.8418 25.4267Z" fill="#FF0017"/>
</svg>
